<?xml version="1.0" encoding="utf-8"?>
<!-- Generator: Adobe Illustrator 25.2.3, SVG Export Plug-In . SVG Version: 6.00 Build 0)  -->
<svg version="1.1" id="Lag_1" xmlns="http://www.w3.org/2000/svg" xmlns:xlink="http://www.w3.org/1999/xlink" x="0px" y="0px"
	 viewBox="0 0 595.28 841.89" style="enable-background:new 0 0 595.28 841.89;" xml:space="preserve">
<style type="text/css">
	.st0{fill:none;stroke:#625E5D;stroke-width:5;stroke-linecap:round;stroke-linejoin:round;stroke-miterlimit:10;}
</style>
<polygon class="st0" points="493.06,413.72 440.79,366.83 388.53,413.72 388.53,482.11 493.06,482.11 "/>
<polygon class="st0" points="242.38,390.45 172.33,327.59 102.27,390.45 102.27,482.11 242.38,482.11 "/>
<g>
	<path class="st0" d="M278.59,410.37c-4.78,0.56-6.77,3.2-6.63,8.04c0.21,7.54,0.06,15.1,0.05,22.65c-0.01,4.01,0.39,7.68,5.85,7.31
		"/>
	<path class="st0" d="M299.78,448.36c5.06,0.15,6.67-2.7,6.6-7.31c-0.11-7.55-0.04-15.1-0.02-22.65c0.01-4.12-0.7-7.69-5.85-8.04"/>
	<path class="st0" d="M279.32,422.79c0,16.56,0,33.12,0,49.68"/>
	<path class="st0" d="M289.55,447.63c0,8.28,0,16.56,0,24.84"/>
	<path class="st0" d="M298.32,422.79c0.23,16.07-0.62,32.16,0.73,48.22"/>
	<path class="st0" d="M285.9,389.92c-7.61,6.93-8.6,10.46-3.57,15.26c2.66,2.54,5.36,5.19,10.27,2.51c4.4-2.4,6.35-5.02,5.7-9.73
		c-0.64-4.65-3.37-7.36-8.02-8.01c-1.19-0.17-2.43-0.03-3.65-0.03"/>
</g>
<line class="st0" x1="102.27" y1="482.11" x2="493.06" y2="482.11"/>
</svg>
