<svg xmlns="http://www.w3.org/2000/svg" viewBox="0 0 468 200"><defs><style>.cls-1,.cls-71{fill:#18675b;}.cls-2,.cls-28,.cls-29,.cls-4{fill:none;}.cls-2,.cls-28,.cls-29,.cls-30,.cls-31,.cls-32,.cls-33,.cls-4{stroke:#fff;stroke-miterlimit:10;}.cls-2{stroke-width:0.61px;}.cls-16,.cls-23,.cls-25,.cls-3,.cls-37,.cls-49,.cls-5,.cls-51{fill:#fff;}.cls-4{stroke-width:0.39px;}.cls-37,.cls-5{font-size:7.27px;}.cls-49,.cls-5,.cls-51{font-family:Gotham-Book, Gotham;}.cls-6{letter-spacing:-0.03em;}.cls-7{letter-spacing:-0.01em;}.cls-8{letter-spacing:-0.01em;}.cls-9{letter-spacing:-0.03em;}.cls-10{letter-spacing:-0.02em;}.cls-11{letter-spacing:-0.02em;}.cls-12{letter-spacing:-0.01em;}.cls-13{letter-spacing:-0.02em;}.cls-14,.cls-15,.cls-16{font-size:5.64px;font-family:Gotham-LightItalic, Gotham;}.cls-14,.cls-15,.cls-16,.cls-37{font-weight:300;}.cls-14,.cls-15,.cls-16,.cls-39,.cls-40,.cls-41,.cls-44,.cls-45{font-style:italic;}.cls-15{letter-spacing:-0.16em;}.cls-17{letter-spacing:-0.01em;}.cls-18{letter-spacing:-0.02em;}.cls-19{letter-spacing:-0.01em;}.cls-20{letter-spacing:-0.01em;}.cls-21,.cls-22,.cls-23,.cls-71{font-family:MyriadPro-Regular, Myriad Pro;}.cls-21,.cls-39,.cls-40,.cls-41,.cls-44,.cls-45,.cls-46{font-weight:400;}.cls-21{font-style:normal;}.cls-23{font-size:7.18px;}.cls-24{letter-spacing:-0.12em;}.cls-25{font-size:6.67px;font-family:Gotham-Bold, Gotham;font-weight:700;}.cls-26{letter-spacing:-0.01em;}.cls-27{letter-spacing:-0.06em;}.cls-28{stroke-width:1.21px;}.cls-29,.cls-30,.cls-31,.cls-32,.cls-33{stroke-width:0.3px;}.cls-30{fill:#144e4a;}.cls-31{fill:#256b88;}.cls-32{fill:#7f2932;}.cls-33{fill:#b07a6c;}.cls-34{fill:#9db8b5;}.cls-35{fill:#cededb;}.cls-36{fill:#e1e8e7;}.cls-37{font-family:Gotham-Light, Gotham;}.cls-38,.cls-44{letter-spacing:2.24em;}.cls-39,.cls-40,.cls-41,.cls-44,.cls-45{font-family:Gotham-BookItalic, Gotham;}.cls-39,.cls-42{letter-spacing:-0.02em;}.cls-41,.cls-43{letter-spacing:-0.03em;}.cls-45,.cls-47{letter-spacing:-0.02em;}.cls-46{font-family:Hill;}.cls-48{fill:#010101;letter-spacing:1.2em;}.cls-49{font-size:6.06px;}.cls-50{letter-spacing:-0.03em;}.cls-51{font-size:4.55px;}.cls-52{letter-spacing:-0.02em;}.cls-53{letter-spacing:-0.02em;}.cls-54{letter-spacing:-0.01em;}.cls-55{letter-spacing:-0.01em;}.cls-56{letter-spacing:-0.02em;}.cls-57{letter-spacing:-0.01em;}.cls-58{letter-spacing:-0.01em;}.cls-59{letter-spacing:-0.02em;}.cls-60{letter-spacing:-0.03em;}.cls-61{letter-spacing:-0.03em;}.cls-62{letter-spacing:-0.03em;}.cls-63{letter-spacing:-0.02em;}.cls-64{letter-spacing:-0.08em;}.cls-65{letter-spacing:0em;}.cls-66{letter-spacing:0.69em;}.cls-67{letter-spacing:-0.09em;}.cls-68{letter-spacing:-0.06em;}.cls-69{letter-spacing:-0.02em;}.cls-70{letter-spacing:0em;}.cls-71{font-size:4.52px;}</style></defs><g id="Layer_2" data-name="Layer 2"><rect class="cls-1" width="468" height="200"/></g><g id="Layer_1" data-name="Layer 1"><polyline class="cls-2" points="71.83 62.4 71.83 67.63 65.66 67.63"/><polygon class="cls-3" points="67.67 65.15 68.08 65.59 65.89 67.63 68.08 69.66 67.67 70.11 65 67.63 67.67 65.15"/><polyline class="cls-4" points="72.39 81.78 72.39 84.39 68.43 84.39"/><polygon class="cls-3" points="69.72 82.8 69.98 83.08 68.58 84.39 69.98 85.7 69.72 85.99 68 84.39 69.72 82.8"/><text class="cls-5" transform="translate(16.56 68.99)">Linjeskift</text><text class="cls-5" transform="translate(13.75 109.62)"><tspan class="cls-6">T</tspan><tspan x="4.46" y="0">il</tspan><tspan class="cls-7" x="8.28" y="0">f</tspan><tspan x="10.88" y="0">øj </tspan><tspan class="cls-8" x="19.67" y="0">f</tspan><tspan x="22.23" y="0">ar</tspan><tspan class="cls-9" x="29.39" y="0">v</tspan><tspan x="33.44" y="0">e</tspan></text><text class="cls-5" transform="translate(8.8 139.57)">Inddeling af <tspan class="cls-7" x="44.94" y="0">f</tspan><tspan x="47.53" y="0">el</tspan><tspan class="cls-8" x="53.75" y="0">t</tspan><tspan x="56.58" y="0">er</tspan></text><text class="cls-5" transform="translate(92.23 69.07)">En<tspan class="cls-8" x="9.35" y="0">t</tspan><tspan x="12.18" y="0">er </tspan></text><text class="cls-5" transform="translate(9.13 83.6)">Opbr<tspan class="cls-10" x="18.79" y="0">y</tspan><tspan x="22.9" y="0">d </tspan><tspan class="cls-11" x="29.91" y="0">t</tspan><tspan x="32.74" y="0">e</tspan><tspan class="cls-12" x="37.05" y="0">k</tspan><tspan class="cls-7" x="41.13" y="0">s</tspan><tspan x="44.68" y="0">t</tspan></text><text class="cls-5" transform="translate(92.23 82.51)"><tspan class="cls-7">C</tspan><tspan x="5.32" y="0">ont</tspan><tspan class="cls-13" x="17.44" y="0">r</tspan><tspan x="20.23" y="0">ol + en</tspan><tspan class="cls-11" x="44.53" y="0">t</tspan><tspan x="47.36" y="0">er </tspan><tspan class="cls-14" x="56.79" y="0">( </tspan><tspan class="cls-15" x="60.91" y="0">/</tspan><tspan class="cls-14" x="62.83" y="0">/ )</tspan></text><text class="cls-16" transform="translate(111.35 109.78)"><tspan class="cls-17">(</tspan><tspan x="2.34" y="0">skri</tspan><tspan class="cls-18" x="11.94" y="0">v</tspan><tspan x="14.97" y="0">es ef</tspan><tspan class="cls-19" x="28.08" y="0">t</tspan><tspan x="30.26" y="0">er </tspan><tspan class="cls-20" x="37.48" y="0">t</tspan><tspan x="39.66" y="0">ema)</tspan></text><text class="cls-16" transform="translate(110.51 165.67)"><tspan class="cls-17">(</tspan><tspan x="2.34" y="0">skri</tspan><tspan class="cls-18" x="11.94" y="0">v</tspan><tspan x="14.97" y="0">es ef</tspan><tspan class="cls-19" x="28.08" y="0">t</tspan><tspan x="30.26" y="0">er </tspan><tspan class="cls-20" x="37.48" y="0">t</tspan><tspan x="39.66" y="0">ek</tspan><tspan class="cls-20" x="46.11" y="0">s</tspan><tspan x="48.84" y="0">t)</tspan><tspan x="0" y="6.77">(</tspan><tspan class="cls-21" x="2.43" y="6.77">¤</tspan><tspan x="5.32" y="6.77">1 er implicit)</tspan></text><text class="cls-5" transform="translate(92.23 157.4)">Shift + 4 (<tspan class="cls-22" x="35.78" y="0">¤</tspan><tspan x="39.51" y="0">)</tspan></text><text class="cls-5" transform="translate(92.23 114.34)">#g</text><text class="cls-23" transform="translate(64.14 80.29)">ab<tspan x="0" y="6.06">c</tspan></text><text class="cls-5" transform="translate(92.23 106.67)">#b</text><text class="cls-5" transform="translate(92.23 98.85)">#r</text><text class="cls-5" transform="translate(92.23 122.41)">#y</text><text class="cls-5" transform="translate(7.35 53.51)">Skift til <tspan class="cls-8" x="27.44" y="0">n</tspan><tspan x="31.81" y="0">y ring</tspan></text><text class="cls-5" transform="translate(92.23 54.41)"><tspan class="cls-24">T</tspan><tspan x="3.77" y="0">ab</tspan></text><text class="cls-25" transform="translate(35.98 33.93)">FUN<tspan class="cls-26" x="14.68" y="0">K</tspan><tspan x="19.48" y="0">TION</tspan></text><text class="cls-25" transform="translate(88.58 33.93)"><tspan class="cls-27">K</tspan><tspan x="4.5" y="0">OMMANDO</tspan></text><text class="cls-25" transform="translate(271.64 33.93)">E<tspan class="cls-26" x="4.47" y="0">K</tspan><tspan x="9.27" y="0">SEMPEL</tspan></text><text class="cls-25" transform="translate(326.62 33.93)">BESKRIVELSE</text><line class="cls-28" x1="81.14" y1="32.01" x2="81.14" y2="179.69"/><line class="cls-28" x1="318.01" y1="32.01" x2="318.01" y2="165.37"/><line class="cls-28" x1="6" y1="40.32" x2="182.15" y2="40.32"/><line class="cls-29" x1="6" y1="58.51" x2="182.15" y2="58.51"/><line class="cls-29" x1="197.98" y1="58.51" x2="462.14" y2="58.51"/><line class="cls-29" x1="197.98" y1="95.65" x2="462.14" y2="95.65"/><line class="cls-29" x1="197.98" y1="139.4" x2="462.14" y2="139.4"/><line class="cls-29" x1="6" y1="72.81" x2="182.15" y2="72.81"/><line class="cls-29" x1="6" y1="89.72" x2="182.15" y2="89.72"/><line class="cls-29" x1="6" y1="128.54" x2="182.15" y2="128.54"/><line class="cls-28" x1="197.49" y1="40.32" x2="462.14" y2="40.32"/><rect class="cls-30" x="66.12" y="109.99" width="6" height="6"/><rect class="cls-31" x="66.12" y="101.77" width="6" height="6"/><rect class="cls-32" x="66.12" y="93.64" width="6" height="6"/><rect class="cls-33" x="66.12" y="118.21" width="6" height="6"/><path class="cls-34" d="M32.36,173.18a15.76,15.76,0,0,1,6.33-3.72l-1.82-6.6a22.35,22.35,0,0,0-9.38,5.52Z"/><path class="cls-34" d="M39.42,169.26a15.7,15.7,0,0,1,7.34-.06l1.72-6.62a22.38,22.38,0,0,0-10.88.08Z"/><path class="cls-34" d="M47.5,169.39A15.8,15.8,0,0,1,53.88,173l4.8-4.88a22.5,22.5,0,0,0-9.46-5.36Z"/><path class="cls-35" d="M26.94,167.84a23.28,23.28,0,0,1,9.72-5.71l-1.82-6.6A30.12,30.12,0,0,0,22.06,163Z"/><path class="cls-35" d="M37.4,161.93a23.11,23.11,0,0,1,11.27-.09l1.72-6.63a30,30,0,0,0-14.82.12Z"/><path class="cls-35" d="M49.41,162a22.77,22.77,0,0,1,4.91,2l3.38-6a30,30,0,0,0-6.57-2.67Z"/><path class="cls-35" d="M55,164.4a23.54,23.54,0,0,1,4.24,3.19l4.8-4.88a30.24,30.24,0,0,0-5.66-4.27Z"/><path class="cls-36" d="M21.35,162.31a30.74,30.74,0,0,1,29.16-8.16l1.74-6.71a37.66,37.66,0,0,0-35.83,10Z"/><path class="cls-36" d="M51.33,154.38A31.15,31.15,0,0,1,64.72,162L69.58,157a38.2,38.2,0,0,0-16.51-9.36Z"/><line class="cls-2" x1="65.71" y1="52.18" x2="71.18" y2="52.18"/><polygon class="cls-3" points="69.17 54.66 68.75 54.21 70.94 52.18 68.75 50.14 69.17 49.7 71.83 52.18 69.17 54.66"/><path class="cls-2" d="M71.89,55.79a5,5,0,0,0-.06-7.28"/><text class="cls-37" transform="translate(200.19 54.6)">TEMA #r<tspan class="cls-38" x="0" y="17.45">	</tspan><tspan class="cls-39" x="18.47" y="17.45">V</tspan><tspan class="cls-40" x="23.54" y="17.45">ir</tspan><tspan class="cls-41" x="28.38" y="17.45">k</tspan><tspan class="cls-40" x="32.3" y="17.45">emiddel A</tspan><tspan class="cls-40"><tspan class="cls-38" x="0" y="26.18">	</tspan><tspan class="cls-42" x="18.47" y="26.18">V</tspan><tspan x="23.54" y="26.18">ir</tspan><tspan class="cls-43" x="28.38" y="26.18">k</tspan><tspan x="32.3" y="26.18">emiddel B</tspan><tspan class="cls-38" x="0" y="34.91">	</tspan><tspan class="cls-42" x="18.47" y="34.91">V</tspan><tspan x="23.54" y="34.91">ir</tspan><tspan class="cls-43" x="28.38" y="34.91">k</tspan><tspan x="32.3" y="34.91">emiddel C</tspan></tspan><tspan class="cls-38" x="0" y="52.36">	</tspan><tspan class="cls-44" x="18.47" y="52.36">	</tspan><tspan class="cls-40" x="36.94" y="52.36">Opl</tspan><tspan class="cls-45" x="49.78" y="52.36">e</tspan><tspan class="cls-39" x="53.91" y="52.36">v</tspan><tspan class="cls-40" x="57.88" y="52.36">else A1 </tspan><tspan class="cls-46" x="84.49" y="52.36">¤</tspan><tspan x="88.13" y="52.36">2</tspan><tspan class="cls-38" x="0" y="61.09">	</tspan><tspan class="cls-44" x="18.47" y="61.09">	</tspan><tspan class="cls-40" x="36.94" y="61.09">Opl</tspan><tspan class="cls-45" x="49.78" y="61.09">e</tspan><tspan class="cls-39" x="53.91" y="61.09">v</tspan><tspan class="cls-40" x="57.88" y="61.09">else B1</tspan><tspan x="81.99" y="61.09"> </tspan><tspan class="cls-46" x="84.17" y="61.09">¤</tspan><tspan x="87.81" y="61.09">2 </tspan><tspan class="cls-38" x="0" y="69.82" xml:space="preserve">		</tspan><tspan class="cls-40" x="36.94" y="69.82">Opl</tspan><tspan class="cls-45" x="49.78" y="69.82">e</tspan><tspan class="cls-39" x="53.91" y="69.82">v</tspan><tspan class="cls-40" x="57.88" y="69.82">else C1</tspan><tspan class="cls-40"><tspan class="cls-38" x="0" y="78.55" xml:space="preserve">		</tspan><tspan x="36.94" y="78.55">Opl</tspan><tspan class="cls-47" x="49.78" y="78.55">e</tspan><tspan class="cls-42" x="53.91" y="78.55">v</tspan><tspan x="57.88" y="78.55">else C1</tspan></tspan><tspan class="cls-38" x="0" y="96" xml:space="preserve">		</tspan><tspan class="cls-44" x="36.94" y="96">	</tspan><tspan class="cls-40" x="55.41" y="96">Handling AB</tspan><tspan x="100.39" y="96"> </tspan><tspan class="cls-46" x="102.57" y="96">¤</tspan><tspan x="106.21" y="96">2</tspan><tspan class="cls-38" x="0" y="104.73" xml:space="preserve">		</tspan><tspan class="cls-44" x="36.94" y="104.73">	</tspan><tspan class="cls-40" x="55.41" y="104.73">Handling C</tspan><tspan class="cls-48"><tspan x="0" y="113.09">	</tspan></tspan></text><text class="cls-49" transform="translate(328.14 52.43)">O<tspan class="cls-50" x="5.15" y="0">v</tspan><tspan x="8.53" y="0">erskrift</tspan></text><text class="cls-51" transform="translate(325.53 66.95)">- Det vi <tspan class="cls-52" x="17.89" y="0">k</tspan><tspan x="20.36" y="0">onk</tspan><tspan class="cls-53" x="28.68" y="0">r</tspan><tspan x="30.42" y="0">et gør som arki</tspan><tspan class="cls-54" x="64.6" y="0">t</tspan><tspan x="66.37" y="0">e</tspan><tspan class="cls-55" x="69.06" y="0">k</tspan><tspan class="cls-56" x="71.6" y="0">t</tspan><tspan x="73.37" y="0">er </tspan><tspan class="cls-57" x="79.26" y="0">f</tspan><tspan x="80.88" y="0">or </tspan><tspan class="cls-58" x="87.02" y="0">a</tspan><tspan x="89.63" y="0">t opnå en e</tspan><tspan class="cls-57" x="115.13" y="0">ff</tspan><tspan x="118.42" y="0">e</tspan><tspan class="cls-55" x="121.11" y="0">k</tspan><tspan x="123.65" y="0">t</tspan><tspan x="0" y="5.45">- Obje</tspan><tspan class="cls-55" x="13.99" y="5.45">k</tspan><tspan x="16.53" y="5.45">tivt og </tspan><tspan class="cls-54" x="32.74" y="5.45">f</tspan><tspan x="34.34" y="5.45">a</tspan><tspan class="cls-55" x="36.97" y="5.45">k</tspan><tspan x="39.51" y="5.45">tuelt besk</tspan><tspan class="cls-59" x="61.79" y="5.45">r</tspan><tspan class="cls-60" x="63.54" y="5.45">e</tspan><tspan class="cls-61" x="66.11" y="5.45">v</tspan><tspan x="68.64" y="5.45">et</tspan><tspan x="0" y="10.91">- Uden opl</tspan><tspan class="cls-52" x="23.69" y="10.91">e</tspan><tspan class="cls-62" x="26.27" y="10.91">v</tspan><tspan x="28.8" y="10.91">else eller </tspan><tspan class="cls-57" x="49.98" y="10.91">f</tspan><tspan x="51.6" y="10.91">ølelse</tspan><tspan x="0" y="16.36">- </tspan><tspan class="cls-63" x="3.22" y="16.36">V</tspan><tspan x="6.54" y="16.36">ir</tspan><tspan class="cls-52" x="9.57" y="16.36">k</tspan><tspan x="12.04" y="16.36">emidlet </tspan><tspan class="cls-55" x="30.34" y="16.36">k</tspan><tspan x="32.88" y="16.36">an vi </tspan><tspan class="cls-56" x="44.91" y="16.36">f</tspan><tspan x="46.5" y="16.36">a</tspan><tspan class="cls-57" x="49.14" y="16.36">k</tspan><tspan x="51.68" y="16.36">tuelt se</tspan><tspan class="cls-64" x="68.35" y="16.36">/</tspan><tspan class="cls-65" x="70.3" y="16.36">obser</tspan><tspan class="cls-62" x="83.05" y="16.36">v</tspan><tspan x="85.58" y="16.36">e</tspan><tspan class="cls-59" x="88.27" y="16.36">r</tspan><tspan class="cls-55" x="90.01" y="16.36">e</tspan><tspan x="92.66" y="16.36">, når vi genbesøger </tspan><tspan class="cls-66" x="137.33" y="16.36">	</tspan><tspan class="cls-52" x="0" y="21.82">by</tspan><tspan x="5.48" y="21.82">gningen i brug</tspan></text><text class="cls-51" transform="translate(325.53 104.33)">- Den <tspan class="cls-55" x="13.63" y="0">f</tspan><tspan x="15.25" y="0">ølelse og opl</tspan><tspan class="cls-52" x="44.05" y="0">e</tspan><tspan class="cls-61" x="46.63" y="0">v</tspan><tspan x="49.16" y="0">else som vi </tspan><tspan class="cls-55" x="75.46" y="0">f</tspan><tspan x="77.09" y="0">or</tspan><tspan class="cls-62" x="81.86" y="0">v</tspan><tspan x="84.39" y="0">en</tspan><tspan class="cls-54" x="89.88" y="0">t</tspan><tspan x="91.65" y="0">e</tspan><tspan class="cls-67" x="94.34" y="0">r</tspan><tspan x="95.78" y="0">, </tspan><tspan class="cls-58" x="98.25" y="0">a</tspan><tspan x="100.86" y="0">t </tspan><tspan class="cls-61" x="104.06" y="0">v</tspan><tspan x="106.59" y="0">o</tspan><tspan class="cls-59" x="109.53" y="0">r</tspan><tspan class="cls-65" x="111.27" y="0">es </tspan><tspan x="0" y="5.45">vir</tspan><tspan class="cls-52" x="5.7" y="5.45">k</tspan><tspan x="8.18" y="5.45">emiddel vil f</tspan><tspan class="cls-53" x="35.75" y="5.45">r</tspan><tspan x="37.49" y="5.45">em</tspan><tspan class="cls-57" x="44.49" y="5.45">k</tspan><tspan x="47.03" y="5.45">alde i bruge</tspan><tspan class="cls-53" x="73.86" y="5.45">r</tspan><tspan x="75.6" y="5.45">en</tspan><tspan class="cls-68" x="81.09" y="5.45">/</tspan><tspan x="83.1" y="5.45">and</tspan><tspan class="cls-59" x="91.55" y="5.45">r</tspan><tspan class="cls-55" x="93.29" y="5.45">e</tspan><tspan x="95.94" y="5.45">, når de møde</tspan><tspan class="cls-67" x="127.08" y="5.45">r</tspan><tspan x="128.51" y="5.45">, </tspan><tspan x="0" y="10.91">sanser </tspan><tspan class="cls-56" x="15.85" y="10.91">(</tspan><tspan x="17.76" y="10.91">se</tspan><tspan class="cls-67" x="22.71" y="10.91">r</tspan><tspan x="24.14" y="10.91">, mær</tspan><tspan class="cls-52" x="37.1" y="10.91">k</tspan><tspan x="39.58" y="10.91">e</tspan><tspan class="cls-67" x="42.27" y="10.91">r</tspan><tspan x="43.7" y="10.91">, hø</tspan><tspan class="cls-59" x="51.91" y="10.91">r</tspan><tspan x="53.65" y="10.91">e</tspan><tspan class="cls-67" x="56.34" y="10.91">r</tspan><tspan x="57.77" y="10.91">, lug</tspan><tspan class="cls-56" x="67.26" y="10.91">t</tspan><tspan x="69.03" y="10.91">er) og a</tspan><tspan class="cls-63" x="86.85" y="10.91">n</tspan><tspan class="cls-62" x="89.56" y="10.91">v</tspan><tspan x="92.09" y="10.91">ender vir</tspan><tspan class="cls-52" x="112.2" y="10.91">k</tspan><tspan x="114.67" y="10.91">emidlet </tspan><tspan x="0" y="16.36">- Subje</tspan><tspan class="cls-55" x="15.83" y="16.36">k</tspan><tspan x="18.37" y="16.36">tiv beskri</tspan><tspan class="cls-61" x="39.03" y="16.36">v</tspan><tspan x="41.56" y="16.36">else f</tspan><tspan class="cls-52" x="53.43" y="16.36">r</tspan><tspan x="55.16" y="16.36">a bruge</tspan><tspan class="cls-53" x="72.52" y="16.36">r</tspan><tspan x="74.26" y="16.36">ens perspe</tspan><tspan class="cls-57" x="98.9" y="16.36">k</tspan><tspan x="101.44" y="16.36">tiv</tspan><tspan x="0" y="21.82">- En opl</tspan><tspan class="cls-52" x="17.58" y="21.82">e</tspan><tspan class="cls-62" x="20.15" y="21.82">v</tspan><tspan x="22.69" y="21.82">else er noget vi </tspan><tspan class="cls-57" x="58.65" y="21.82">k</tspan><tspan x="61.2" y="21.82">an spø</tspan><tspan class="cls-69" x="76.21" y="21.82">r</tspan><tspan x="77.95" y="21.82">ge brugerne om, når vi </tspan><tspan x="0" y="27.27">genbesøger </tspan><tspan class="cls-52" x="28.33" y="27.27">by</tspan><tspan x="33.81" y="27.27">gningen i brug</tspan></text><text class="cls-51" transform="translate(325.53 146.99)">- Det vi <tspan class="cls-55" x="17.89" y="0">f</tspan><tspan x="19.51" y="0">or</tspan><tspan class="cls-61" x="24.29" y="0">v</tspan><tspan x="26.82" y="0">en</tspan><tspan class="cls-56" x="32.31" y="0">t</tspan><tspan x="34.08" y="0">er </tspan><tspan class="cls-52" x="39.97" y="0">k</tspan><tspan x="42.45" y="0">onk</tspan><tspan class="cls-53" x="50.77" y="0">r</tspan><tspan x="52.51" y="0">et vil s</tspan><tspan class="cls-52" x="67.08" y="0">k</tspan><tspan class="cls-57" x="69.56" y="0">e</tspan><tspan x="72.2" y="0">, som </tspan><tspan class="cls-53" x="85.55" y="0">r</tspan><tspan x="87.29" y="0">esult</tspan><tspan class="cls-70" x="98.08" y="0">a</tspan><tspan x="100.69" y="0">t af vir</tspan><tspan class="cls-52" x="115.25" y="0">k</tspan><tspan x="117.72" y="0">emidlet.</tspan><tspan x="0" y="5.45">- Brugernes </tspan><tspan class="cls-52" x="27.81" y="5.45">k</tspan><tspan x="30.28" y="5.45">onk</tspan><tspan class="cls-53" x="38.6" y="5.45">r</tspan><tspan x="40.34" y="5.45">e</tspan><tspan class="cls-54" x="43.03" y="5.45">t</tspan><tspan x="44.8" y="5.45">e handlinger som </tspan><tspan class="cls-53" x="85.08" y="5.45">r</tspan><tspan x="86.82" y="5.45">esult</tspan><tspan class="cls-70" x="97.61" y="5.45">a</tspan><tspan x="100.22" y="5.45">t af vir</tspan><tspan class="cls-52" x="114.78" y="5.45">k</tspan><tspan x="117.26" y="5.45">emidlet.</tspan><tspan x="0" y="10.91">- Brugernes handlinger </tspan><tspan class="cls-55" x="53.16" y="10.91">k</tspan><tspan x="55.7" y="10.91">an vi </tspan><tspan class="cls-54" x="67.72" y="10.91">f</tspan><tspan x="69.32" y="10.91">a</tspan><tspan class="cls-55" x="71.96" y="10.91">k</tspan><tspan x="74.5" y="10.91">tuelt obser</tspan><tspan class="cls-61" x="98.97" y="10.91">v</tspan><tspan x="101.5" y="10.91">e</tspan><tspan class="cls-53" x="104.19" y="10.91">r</tspan><tspan class="cls-57" x="105.93" y="10.91">e</tspan><tspan x="108.57" y="10.91">, når vi </tspan><tspan x="0" y="16.36">genbesøger </tspan><tspan class="cls-52" x="28.33" y="16.36">by</tspan><tspan x="33.81" y="16.36">gningen i brug</tspan></text><text class="cls-71" transform="translate(31.26 169.18)">¤1</text><text class="cls-71" transform="translate(40.48 167.03)">¤1</text><text class="cls-71" transform="translate(50.61 169.06)">¤1</text><text class="cls-71" transform="translate(27.57 162.78)">¤2</text><text class="cls-71" transform="translate(40.44 159.72)">¤2</text><text class="cls-71" transform="translate(33.15 152.16)">¤2</text><text class="cls-71" transform="translate(58.27 156.14)">¤1</text><text class="cls-71" transform="translate(50.74 161.27)">¤1</text><text class="cls-71" transform="translate(56.99 164.9)">¤1</text></g></svg>