<svg xmlns="http://www.w3.org/2000/svg" viewBox="0 0 468 200"><defs><style>.cls-1,.cls-60{fill:#18675b;}.cls-2,.cls-28,.cls-29,.cls-4{fill:none;}.cls-2,.cls-28,.cls-29,.cls-30,.cls-31,.cls-32,.cls-33,.cls-4{stroke:#fff;stroke-miterlimit:10;}.cls-2{stroke-width:0.61px;}.cls-16,.cls-23,.cls-25,.cls-3,.cls-37,.cls-38,.cls-40,.cls-5,.cls-61{fill:#fff;}.cls-4{stroke-width:0.39px;}.cls-37,.cls-5,.cls-61{font-size:7.27px;}.cls-38,.cls-40,.cls-5{font-family:Gotham-Book, Gotham;}.cls-6{letter-spacing:-0.03em;}.cls-7{letter-spacing:-0.01em;}.cls-8{letter-spacing:-0.01em;}.cls-9{letter-spacing:-0.03em;}.cls-10{letter-spacing:-0.02em;}.cls-11{letter-spacing:-0.02em;}.cls-12{letter-spacing:-0.01em;}.cls-13{letter-spacing:-0.02em;}.cls-14,.cls-15,.cls-16{font-size:5.64px;font-family:Gotham-LightItalic, Gotham;}.cls-14,.cls-15,.cls-16,.cls-37{font-weight:300;}.cls-14,.cls-15,.cls-16,.cls-61{font-style:italic;}.cls-15{letter-spacing:-0.16em;}.cls-17{letter-spacing:-0.01em;}.cls-18{letter-spacing:-0.02em;}.cls-19{letter-spacing:-0.01em;}.cls-20{letter-spacing:-0.01em;}.cls-21,.cls-22,.cls-23,.cls-60{font-family:MyriadPro-Regular, Myriad Pro;}.cls-21{font-weight:400;font-style:normal;}.cls-23{font-size:7.18px;}.cls-24{letter-spacing:-0.12em;}.cls-25{font-size:6.67px;font-family:Gotham-Bold, Gotham;font-weight:700;}.cls-26{letter-spacing:-0.01em;}.cls-27{letter-spacing:-0.06em;}.cls-28{stroke-width:1.21px;}.cls-29,.cls-30,.cls-31,.cls-32,.cls-33{stroke-width:0.3px;}.cls-30{fill:#144e4a;}.cls-31{fill:#256b88;}.cls-32{fill:#7f2932;}.cls-33{fill:#b07a6c;}.cls-34{fill:#9db8b5;}.cls-35{fill:#cededb;}.cls-36{fill:#e1e8e7;}.cls-37{font-family:Gotham-Light, Gotham;}.cls-38{font-size:6.06px;}.cls-39{letter-spacing:-0.03em;}.cls-40{font-size:6px;}.cls-41{letter-spacing:-0.03em;}.cls-42{letter-spacing:-0.02em;}.cls-43{letter-spacing:-0.01em;}.cls-44{letter-spacing:-0.01em;}.cls-45{letter-spacing:-0.01em;}.cls-46{letter-spacing:0em;}.cls-47{letter-spacing:-0.02em;}.cls-48{letter-spacing:-0.03em;}.cls-49{letter-spacing:-0.02em;}.cls-50{letter-spacing:-0.02em;}.cls-51{letter-spacing:-0.08em;}.cls-52{letter-spacing:0.4em;}.cls-53{letter-spacing:-0.09em;}.cls-54{letter-spacing:-0.01em;}.cls-55{letter-spacing:-0.06em;}.cls-56{letter-spacing:-0.02em;}.cls-57{letter-spacing:-0.03em;}.cls-58{letter-spacing:-0.02em;}.cls-59{letter-spacing:0em;}.cls-60{font-size:4.52px;}.cls-61{font-family:Gotham-BookItalic, Gotham;}.cls-62{letter-spacing:-0.02em;}.cls-63{letter-spacing:-0.02em;}.cls-64{letter-spacing:-0.02em;}.cls-65{letter-spacing:-0.03em;}.cls-66{letter-spacing:0em;}</style></defs><g id="Layer_2" data-name="Layer 2"><rect class="cls-1" width="468" height="200"/></g><g id="Layer_1" data-name="Layer 1"><polyline class="cls-2" points="71.83 62.4 71.83 67.63 65.66 67.63"/><polygon class="cls-3" points="67.67 65.15 68.08 65.59 65.89 67.63 68.08 69.66 67.67 70.11 65 67.63 67.67 65.15"/><polyline class="cls-4" points="72.39 81.78 72.39 84.39 68.43 84.39"/><polygon class="cls-3" points="69.72 82.8 69.98 83.08 68.58 84.39 69.98 85.7 69.72 85.99 68 84.39 69.72 82.8"/><text class="cls-5" transform="translate(16.56 68.99)">Linjeskift</text><text class="cls-5" transform="translate(13.75 109.62)"><tspan class="cls-6">T</tspan><tspan x="4.46" y="0">il</tspan><tspan class="cls-7" x="8.28" y="0">f</tspan><tspan x="10.88" y="0">øj </tspan><tspan class="cls-8" x="19.67" y="0">f</tspan><tspan x="22.23" y="0">ar</tspan><tspan class="cls-9" x="29.39" y="0">v</tspan><tspan x="33.44" y="0">e</tspan></text><text class="cls-5" transform="translate(8.8 139.57)">Inddeling af <tspan class="cls-7" x="44.94" y="0">f</tspan><tspan x="47.53" y="0">el</tspan><tspan class="cls-8" x="53.75" y="0">t</tspan><tspan x="56.58" y="0">er</tspan></text><text class="cls-5" transform="translate(92.23 69.07)">En<tspan class="cls-8" x="9.35" y="0">t</tspan><tspan x="12.18" y="0">er </tspan></text><text class="cls-5" transform="translate(9.13 83.6)">Ombr<tspan class="cls-10" x="20.85" y="0">y</tspan><tspan x="24.97" y="0">d </tspan><tspan class="cls-11" x="31.98" y="0">t</tspan><tspan x="34.81" y="0">e</tspan><tspan class="cls-12" x="39.11" y="0">k</tspan><tspan class="cls-7" x="43.2" y="0">s</tspan><tspan x="46.75" y="0">t</tspan></text><text class="cls-5" transform="translate(92.23 82.51)"><tspan class="cls-7">C</tspan><tspan x="5.32" y="0">ont</tspan><tspan class="cls-13" x="17.44" y="0">r</tspan><tspan x="20.23" y="0">ol + en</tspan><tspan class="cls-11" x="44.53" y="0">t</tspan><tspan x="47.36" y="0">er </tspan><tspan class="cls-14" x="56.79" y="0">( </tspan><tspan class="cls-15" x="60.91" y="0">/</tspan><tspan class="cls-14" x="62.83" y="0">/ )</tspan></text><text class="cls-16" transform="translate(111.35 109.78)"><tspan class="cls-17">(</tspan><tspan x="2.34" y="0">skri</tspan><tspan class="cls-18" x="11.94" y="0">v</tspan><tspan x="14.97" y="0">es ef</tspan><tspan class="cls-19" x="28.08" y="0">t</tspan><tspan x="30.26" y="0">er </tspan><tspan class="cls-20" x="37.48" y="0">t</tspan><tspan x="39.66" y="0">ema)</tspan></text><text class="cls-16" transform="translate(110.51 165.67)"><tspan class="cls-17">(</tspan><tspan x="2.34" y="0">skri</tspan><tspan class="cls-18" x="11.94" y="0">v</tspan><tspan x="14.97" y="0">es ef</tspan><tspan class="cls-19" x="28.08" y="0">t</tspan><tspan x="30.26" y="0">er </tspan><tspan class="cls-20" x="37.48" y="0">t</tspan><tspan x="39.66" y="0">ek</tspan><tspan class="cls-20" x="46.11" y="0">s</tspan><tspan x="48.84" y="0">t)</tspan><tspan x="0" y="6.77">(</tspan><tspan class="cls-21" x="2.43" y="6.77">¤</tspan><tspan x="5.32" y="6.77">1 er implicit)</tspan></text><text class="cls-5" transform="translate(92.23 157.4)">Shift + 4 (<tspan class="cls-22" x="35.78" y="0">¤</tspan><tspan x="39.51" y="0">)</tspan></text><text class="cls-5" transform="translate(92.23 114.34)">#g</text><text class="cls-23" transform="translate(64.14 80.29)">ab<tspan x="0" y="6.06">c</tspan></text><text class="cls-5" transform="translate(92.23 106.67)">#b</text><text class="cls-5" transform="translate(92.23 98.85)">#r</text><text class="cls-5" transform="translate(92.23 122.41)">#y</text><text class="cls-5" transform="translate(7.35 53.51)">Skift til <tspan class="cls-8" x="27.44" y="0">n</tspan><tspan x="31.81" y="0">y ring</tspan></text><text class="cls-5" transform="translate(92.23 54.41)"><tspan class="cls-24">T</tspan><tspan x="3.77" y="0">ab</tspan></text><text class="cls-25" transform="translate(35.98 33.93)">FUN<tspan class="cls-26" x="14.68" y="0">K</tspan><tspan x="19.48" y="0">TION</tspan></text><text class="cls-25" transform="translate(88.58 33.93)"><tspan class="cls-27">K</tspan><tspan x="4.5" y="0">OMMANDO</tspan></text><text class="cls-25" transform="translate(219.64 33.93)">Lag</text><text class="cls-25" transform="translate(274.62 33.93)">BESKRIVELSE</text><line class="cls-28" x1="81.14" y1="32.01" x2="81.14" y2="179.69"/><line class="cls-28" x1="263.01" y1="32.01" x2="263.01" y2="165.37"/><line class="cls-28" x1="6" y1="40.32" x2="182.15" y2="40.32"/><line class="cls-29" x1="6" y1="58.51" x2="182.15" y2="58.51"/><line class="cls-29" x1="197.98" y1="56.51" x2="462.14" y2="56.51"/><line class="cls-29" x1="197.98" y1="97.65" x2="462.14" y2="97.65"/><line class="cls-29" x1="197.98" y1="146.4" x2="462.14" y2="146.4"/><line class="cls-29" x1="6" y1="72.81" x2="182.15" y2="72.81"/><line class="cls-29" x1="6" y1="89.72" x2="182.15" y2="89.72"/><line class="cls-29" x1="6" y1="128.54" x2="182.15" y2="128.54"/><line class="cls-28" x1="197.49" y1="40.32" x2="462.14" y2="40.32"/><rect class="cls-30" x="66.12" y="109.99" width="6" height="6"/><rect class="cls-31" x="66.12" y="101.77" width="6" height="6"/><rect class="cls-32" x="66.12" y="93.64" width="6" height="6"/><rect class="cls-33" x="66.12" y="118.21" width="6" height="6"/><path class="cls-34" d="M32.36,173.18a15.76,15.76,0,0,1,6.33-3.72l-1.82-6.6a22.35,22.35,0,0,0-9.38,5.52Z"/><path class="cls-34" d="M39.42,169.26a15.7,15.7,0,0,1,7.34-.06l1.72-6.62a22.38,22.38,0,0,0-10.88.08Z"/><path class="cls-34" d="M47.5,169.39A15.8,15.8,0,0,1,53.88,173l4.8-4.88a22.5,22.5,0,0,0-9.46-5.36Z"/><path class="cls-35" d="M26.94,167.84a23.28,23.28,0,0,1,9.72-5.71l-1.82-6.6A30.12,30.12,0,0,0,22.06,163Z"/><path class="cls-35" d="M37.4,161.93a23.11,23.11,0,0,1,11.27-.09l1.72-6.63a30,30,0,0,0-14.82.12Z"/><path class="cls-35" d="M49.41,162a22.77,22.77,0,0,1,4.91,2l3.38-6a30,30,0,0,0-6.57-2.67Z"/><path class="cls-35" d="M55,164.4a23.54,23.54,0,0,1,4.24,3.19l4.8-4.88a30.24,30.24,0,0,0-5.66-4.27Z"/><path class="cls-36" d="M21.35,162.31a30.74,30.74,0,0,1,29.16-8.16l1.74-6.71a37.66,37.66,0,0,0-35.83,10Z"/><path class="cls-36" d="M51.33,154.38A31.15,31.15,0,0,1,64.72,162L69.58,157a38.2,38.2,0,0,0-16.51-9.36Z"/><line class="cls-2" x1="65.71" y1="52.18" x2="71.18" y2="52.18"/><polygon class="cls-3" points="69.17 54.66 68.75 54.21 70.94 52.18 68.75 50.14 69.17 49.7 71.83 52.18 69.17 54.66"/><path class="cls-2" d="M71.89,55.79a5,5,0,0,0-.06-7.28"/><text class="cls-37" transform="translate(200.19 52.6)">TEMA</text><text class="cls-38" transform="translate(276.14 50.43)">O<tspan class="cls-39" x="5.15" y="0">v</tspan><tspan x="8.53" y="0">erskrift</tspan></text><text class="cls-40" transform="translate(273.8 64.02)">- Det vi <tspan class="cls-41" x="23.62" y="0">k</tspan><tspan x="26.88" y="0">onk</tspan><tspan class="cls-42" x="37.87" y="0">r</tspan><tspan x="40.16" y="0">et gør som arki</tspan><tspan class="cls-43" x="85.28" y="0">t</tspan><tspan x="87.61" y="0">e</tspan><tspan class="cls-44" x="91.16" y="0">k</tspan><tspan class="cls-43" x="94.52" y="0">t</tspan><tspan x="96.85" y="0">er </tspan><tspan class="cls-45" x="104.63" y="0">f</tspan><tspan x="106.77" y="0">or </tspan><tspan class="cls-46" x="114.88" y="0">a</tspan><tspan x="118.32" y="0">t opnå en e</tspan><tspan class="cls-45" x="151.98" y="0">ff</tspan><tspan x="156.33" y="0">e</tspan><tspan class="cls-44" x="159.88" y="0">k</tspan><tspan x="163.23" y="0">t</tspan><tspan x="0" y="7.2">- Obje</tspan><tspan class="cls-44" x="18.46" y="7.2">k</tspan><tspan x="21.82" y="7.2">tivt og </tspan><tspan class="cls-47" x="43.22" y="7.2">f</tspan><tspan x="45.33" y="7.2">a</tspan><tspan class="cls-44" x="48.81" y="7.2">k</tspan><tspan x="52.16" y="7.2">tuelt besk</tspan><tspan class="cls-42" x="81.58" y="7.2">r</tspan><tspan class="cls-41" x="83.87" y="7.2">e</tspan><tspan class="cls-48" x="87.27" y="7.2">v</tspan><tspan x="90.62" y="7.2">et</tspan><tspan x="0" y="14.4">- Uden opl</tspan><tspan class="cls-41" x="31.27" y="14.4">e</tspan><tspan class="cls-48" x="34.67" y="14.4">v</tspan><tspan x="38.02" y="14.4">else eller </tspan><tspan class="cls-44" x="65.97" y="14.4">f</tspan><tspan x="68.12" y="14.4">ølelse</tspan><tspan x="0" y="21.6">- </tspan><tspan class="cls-49" x="4.25" y="21.6">V</tspan><tspan x="8.63" y="21.6">ir</tspan><tspan class="cls-50" x="12.64" y="21.6">k</tspan><tspan x="15.9" y="21.6">emidlet </tspan><tspan class="cls-45" x="40.06" y="21.6">k</tspan><tspan x="43.41" y="21.6">an vi </tspan><tspan class="cls-43" x="59.28" y="21.6">f</tspan><tspan x="61.39" y="21.6">a</tspan><tspan class="cls-44" x="64.87" y="21.6">k</tspan><tspan x="68.22" y="21.6">tuelt se</tspan><tspan class="cls-51" x="90.23" y="21.6">/</tspan><tspan x="92.8" y="21.6">obser</tspan><tspan class="cls-48" x="109.63" y="21.6">v</tspan><tspan x="112.97" y="21.6">e</tspan><tspan class="cls-42" x="116.52" y="21.6">r</tspan><tspan class="cls-45" x="118.82" y="21.6">e</tspan><tspan x="122.31" y="21.6">, når vi genbesøger </tspan><tspan class="cls-52" x="181.28" y="21.6">	</tspan><tspan class="cls-41" x="0" y="28.8">by</tspan><tspan x="7.23" y="28.8">gningen i brug</tspan></text><text class="cls-40" transform="translate(273.8 104.39)">- Den <tspan class="cls-44" x="17.99" y="0">f</tspan><tspan x="20.13" y="0">ølelse og opl</tspan><tspan class="cls-41" x="58.15" y="0">e</tspan><tspan class="cls-48" x="61.55" y="0">v</tspan><tspan x="64.9" y="0">else som vi </tspan><tspan class="cls-45" x="99.62" y="0">f</tspan><tspan x="101.76" y="0">or</tspan><tspan class="cls-48" x="108.07" y="0">v</tspan><tspan x="111.41" y="0">en</tspan><tspan class="cls-43" x="118.66" y="0">t</tspan><tspan x="120.99" y="0">e</tspan><tspan class="cls-53" x="124.54" y="0">r</tspan><tspan x="126.43" y="0">, </tspan><tspan class="cls-54" x="129.7" y="0">a</tspan><tspan x="133.14" y="0">t </tspan><tspan class="cls-48" x="137.37" y="0">v</tspan><tspan x="140.71" y="0">o</tspan><tspan class="cls-42" x="144.58" y="0">r</tspan><tspan x="146.88" y="0">es </tspan><tspan x="0" y="7.2">vir</tspan><tspan class="cls-41" x="7.53" y="7.2">k</tspan><tspan x="10.79" y="7.2">emiddel vil f</tspan><tspan class="cls-42" x="47.19" y="7.2">r</tspan><tspan x="49.49" y="7.2">em</tspan><tspan class="cls-44" x="58.73" y="7.2">k</tspan><tspan x="62.08" y="7.2">alde i bruge</tspan><tspan class="cls-42" x="97.49" y="7.2">r</tspan><tspan x="99.79" y="7.2">en</tspan><tspan class="cls-55" x="107.04" y="7.2">/</tspan><tspan x="109.7" y="7.2">and</tspan><tspan class="cls-56" x="120.85" y="7.2">r</tspan><tspan class="cls-44" x="123.15" y="7.2">e</tspan><tspan x="126.64" y="7.2">, når de møde</tspan><tspan class="cls-53" x="167.75" y="7.2">r</tspan><tspan x="169.64" y="7.2">, </tspan><tspan x="0" y="14.4">sanser </tspan><tspan class="cls-43" x="20.93" y="14.4">(</tspan><tspan x="23.44" y="14.4">se</tspan><tspan class="cls-53" x="29.98" y="14.4">r</tspan><tspan x="31.87" y="14.4">, mær</tspan><tspan class="cls-41" x="48.98" y="14.4">k</tspan><tspan x="52.24" y="14.4">e</tspan><tspan class="cls-53" x="55.79" y="14.4">r</tspan><tspan x="57.68" y="14.4">, hø</tspan><tspan class="cls-42" x="68.52" y="14.4">r</tspan><tspan x="70.82" y="14.4">e</tspan><tspan class="cls-53" x="74.37" y="14.4">r</tspan><tspan x="76.26" y="14.4">, lug</tspan><tspan class="cls-43" x="88.79" y="14.4">t</tspan><tspan x="91.13" y="14.4">er) og a</tspan><tspan class="cls-49" x="114.64" y="14.4">n</tspan><tspan class="cls-48" x="118.22" y="14.4">v</tspan><tspan x="121.56" y="14.4">ender vir</tspan><tspan class="cls-50" x="148.1" y="14.4">k</tspan><tspan x="151.37" y="14.4">emidlet </tspan><tspan x="0" y="21.6">- Subje</tspan><tspan class="cls-44" x="20.9" y="21.6">k</tspan><tspan x="24.25" y="21.6">tiv beskri</tspan><tspan class="cls-57" x="51.52" y="21.6">v</tspan><tspan x="54.86" y="21.6">else f</tspan><tspan class="cls-50" x="70.54" y="21.6">r</tspan><tspan x="72.82" y="21.6">a bruge</tspan><tspan class="cls-42" x="95.74" y="21.6">r</tspan><tspan x="98.03" y="21.6">ens perspe</tspan><tspan class="cls-45" x="130.56" y="21.6">k</tspan><tspan x="133.91" y="21.6">tiv</tspan><tspan x="0" y="28.8">- En opl</tspan><tspan class="cls-41" x="23.2" y="28.8">e</tspan><tspan class="cls-48" x="26.6" y="28.8">v</tspan><tspan x="29.95" y="28.8">else er noget vi </tspan><tspan class="cls-44" x="77.43" y="28.8">k</tspan><tspan x="80.78" y="28.8">an spø</tspan><tspan class="cls-58" x="100.6" y="28.8">r</tspan><tspan x="102.9" y="28.8">ge brugerne om, når vi </tspan><tspan x="0" y="36">genbesøger </tspan><tspan class="cls-41" x="37.4" y="36">by</tspan><tspan x="44.63" y="36">gningen i brug</tspan></text><text class="cls-40" transform="translate(273.8 153.88)">- Det vi <tspan class="cls-44" x="23.62" y="0">f</tspan><tspan x="25.76" y="0">or</tspan><tspan class="cls-57" x="32.06" y="0">v</tspan><tspan x="35.4" y="0">en</tspan><tspan class="cls-43" x="42.65" y="0">t</tspan><tspan x="44.99" y="0">er </tspan><tspan class="cls-50" x="52.77" y="0">k</tspan><tspan x="56.03" y="0">onk</tspan><tspan class="cls-56" x="67.02" y="0">r</tspan><tspan x="69.32" y="0">et vil s</tspan><tspan class="cls-50" x="88.56" y="0">k</tspan><tspan class="cls-45" x="91.82" y="0">e</tspan><tspan class="cls-59" x="95.31" y="0">, som </tspan><tspan class="cls-56" x="112.94" y="0">r</tspan><tspan x="115.23" y="0">esult</tspan><tspan class="cls-46" x="129.47" y="0">a</tspan><tspan x="132.92" y="0">t af vir</tspan><tspan class="cls-41" x="152.14" y="0">k</tspan><tspan x="155.41" y="0">emidlet.</tspan><tspan x="0" y="7.2">- Brugernes </tspan><tspan class="cls-41" x="36.71" y="7.2">k</tspan><tspan x="39.97" y="7.2">onk</tspan><tspan class="cls-42" x="50.96" y="7.2">r</tspan><tspan x="53.26" y="7.2">e</tspan><tspan class="cls-43" x="56.81" y="7.2">t</tspan><tspan x="59.14" y="7.2">e handlinger som </tspan><tspan class="cls-42" x="112.31" y="7.2">r</tspan><tspan x="114.61" y="7.2">esult</tspan><tspan class="cls-54" x="128.85" y="7.2">a</tspan><tspan x="132.29" y="7.2">t af vir</tspan><tspan class="cls-50" x="151.52" y="7.2">k</tspan><tspan x="154.79" y="7.2">emidlet.</tspan><tspan x="0" y="14.4">- Brugernes handlinger </tspan><tspan class="cls-44" x="70.18" y="14.4">k</tspan><tspan x="73.53" y="14.4">an vi </tspan><tspan class="cls-47" x="89.4" y="14.4">f</tspan><tspan x="91.51" y="14.4">a</tspan><tspan class="cls-44" x="94.99" y="14.4">k</tspan><tspan x="98.34" y="14.4">tuelt obser</tspan><tspan class="cls-48" x="130.64" y="14.4">v</tspan><tspan x="133.99" y="14.4">e</tspan><tspan class="cls-42" x="137.54" y="14.4">r</tspan><tspan class="cls-45" x="139.83" y="14.4">e</tspan><tspan x="143.33" y="14.4">, når vi </tspan><tspan x="0" y="21.6">genbesøger </tspan><tspan class="cls-41" x="37.4" y="21.6">by</tspan><tspan x="44.63" y="21.6">gningen i brug</tspan></text><text class="cls-60" transform="translate(31.26 169.18)">¤1</text><text class="cls-60" transform="translate(40.48 167.03)">¤1</text><text class="cls-60" transform="translate(50.61 169.06)">¤1</text><text class="cls-60" transform="translate(27.57 162.78)">¤2</text><text class="cls-60" transform="translate(40.44 159.72)">¤2</text><text class="cls-60" transform="translate(33.15 152.16)">¤2</text><text class="cls-60" transform="translate(58.27 156.14)">¤1</text><text class="cls-60" transform="translate(50.74 161.27)">¤1</text><text class="cls-60" transform="translate(56.99 164.9)">¤1</text><text class="cls-61" transform="translate(200.19 156.06)">Handling</text><text class="cls-61" transform="translate(200.19 106.67)">Opl<tspan class="cls-62" x="12.84" y="0">e</tspan><tspan class="cls-63" x="16.97" y="0">v</tspan><tspan x="20.94" y="0">else</tspan></text><text class="cls-61" transform="translate(200.19 66.16)"><tspan class="cls-64">V</tspan><tspan x="5.07" y="0">ir</tspan><tspan class="cls-65" x="9.91" y="0">k</tspan><tspan class="cls-66" x="13.83" y="0">emiddel</tspan></text></g></svg>